<svg xmlns="http://www.w3.org/2000/svg" width="512" height="512" viewBox="0 0 512 512">
    <path fill="#19b4c7" d="M217.624 326.483l-97.186-96.012c-6.335-6.335-14.758-9.824-23.716-9.824-6.154 0-12.055 1.646-17.2 4.731V109.796c0-5.9-1.537-11.446-4.222-16.267a17.208 17.208 0 0 1 5.545-.932c9.484 0 17.199 7.716 17.199 17.2v84.951a8.17 8.17 0 0 0 16.34 0v-84.951c0-18.494-15.045-33.54-33.539-33.54a33.387 33.387 0 0 0-17.436 4.891 33.349 33.349 0 0 0-17.424-4.891c-18.494 0-33.54 15.046-33.54 33.547l.142 161.102c.007 7.218 2.679 17.407 6.216 23.7.057.101.115.2.178.298l100.63 162.43c2.122 3.865 4.036 11.226 4.036 15.564v30.789a8.17 8.17 0 0 0 16.34 0v-30.789c0-7.22-2.669-17.412-6.207-23.707a6.869 6.869 0 0 0-.177-.298L32.97 286.462c-2.122-3.868-4.039-11.231-4.044-15.571l-.142-161.095c0-9.484 7.715-17.2 17.199-17.2 9.484 0 17.199 7.716 17.199 17.2v144.392c0 .204.016.403.031.602.149 8.387 3.408 16.728 9.793 23.114l78.059 78.059a8.17 8.17 0 0 0 11.554 0 8.17 8.17 0 0 0 0-11.554l-78.058-78.06a17.09 17.09 0 0 1-5.038-12.163c0-4.594 1.79-8.913 5.038-12.162s7.568-5.038 12.162-5.038c4.594 0 8.913 1.79 12.196 5.073l97.186 96.012c10.808 10.808 19.938 32.851 19.938 48.136V503.83a8.17 8.17 0 0 0 16.34 0V386.207c0-19.606-10.86-45.825-24.759-59.724zM466.017 76.255a33.342 33.342 0 0 0-17.423 4.891 33.395 33.395 0 0 0-17.436-4.891c-18.494 0-33.54 15.046-33.54 33.54v84.951a8.17 8.17 0 0 0 16.34 0v-84.951c0-9.484 7.716-17.2 17.199-17.2 1.912 0 3.777.331 5.544.932a33.326 33.326 0 0 0-4.222 16.267v115.582c-5.145-3.084-11.046-4.731-17.2-4.731-8.959 0-17.382 3.489-23.681 9.789l-97.256 96.082c-13.864 13.864-24.724 40.083-24.724 59.689V503.83a8.17 8.17 0 0 0 16.34 0V386.207c0-15.284 9.13-37.327 19.903-48.1l97.256-96.082a17.09 17.09 0 0 1 12.162-5.038 17.09 17.09 0 0 1 12.162 5.038 17.09 17.09 0 0 1 5.038 12.162c0 4.595-1.79 8.914-5.038 12.163l-78.059 78.059a8.17 8.17 0 0 0 0 11.554 8.17 8.17 0 0 0 11.554 0l78.059-78.059c6.386-6.386 9.644-14.727 9.793-23.114.014-.199.031-.4.031-.602V109.796c0-9.484 7.716-17.2 17.199-17.2 9.484 0 17.2 7.716 17.2 17.192l-.142 161.104c-.003 4.34-1.922 11.703-4.045 15.571l-100.63 162.429c-.061.098-.12.198-.177.298-3.539 6.294-6.207 16.485-6.207 23.707v30.789a8.17 8.17 0 0 0 16.34 0v-30.789c0-4.339 1.914-11.699 4.035-15.564l100.63-162.43c.061-.098.12-.198.178-.298 3.538-6.294 6.21-16.483 6.216-23.7l.142-161.11c-.002-18.493-15.047-33.54-33.541-33.54z"/>
    <path fill="#19b4c7" d="M373.106 59.915a8.17 8.17 0 0 0 8.17-8.17V8.17a8.17 8.17 0 0 0-8.17-8.17H138.894a8.17 8.17 0 0 0-8.17 8.17v43.574a8.17 8.17 0 0 0 8.17 8.17h2.723v16.34h-2.723a8.17 8.17 0 0 0-8.17 8.17V128a8.17 8.17 0 0 0 8.17 8.17h2.723v16.34h-2.723a8.17 8.17 0 0 0-8.17 8.17v43.574a8.17 8.17 0 0 0 8.17 8.17h234.213a8.17 8.17 0 0 0 8.17-8.17V160.68a8.17 8.17 0 0 0-8.17-8.17h-2.723v-16.34h2.723a8.17 8.17 0 0 0 8.17-8.17V84.426a8.17 8.17 0 0 0-8.17-8.17h-2.723v-16.34h2.722zm-8.17 136.17H147.064v-27.234h217.872v27.234zm0-76.255h-35.404a8.17 8.17 0 0 0 0 16.34h24.511v16.34H157.957v-16.34h138.894a8.17 8.17 0 0 0 0-16.34H147.064V92.596h217.872v27.234zM157.957 76.255v-16.34h196.085v16.34H157.957zm206.979-32.681H147.064V16.34h217.872v27.234z"/>
</svg>
