<svg xmlns="http://www.w3.org/2000/svg" width="512" height="512" viewBox="0 0 480 480">
    <path fill="#19b4c7" d="M355.909 73.703C334.84 28.732 289.662.004 240 0c-70.698.006-128.006 57.322-128 128.02.004 49.662 28.732 94.841 73.703 115.909l6.821 17.88c-10.041 8.355-11.408 23.267-3.054 33.308.25.3.507.594.772.882-8.894 9.75-8.201 24.863 1.548 33.758a23.9 23.9 0 0 0 16.209 6.242h64c13.197.058 23.942-10.594 24-23.791a23.896 23.896 0 0 0-6.242-16.209c8.842-9.615 8.215-24.577-1.4-33.419a23.868 23.868 0 0 0-.882-.772l6.821-17.88c64.021-29.992 91.606-106.205 61.613-170.225zM272 320h-64a8 8 0 0 1 0-16h64a8 8 0 0 1 0 16zm0-32h-64a8 8 0 0 1 0-16h64a8 8 0 0 1 0 16zm12.805-57.336a8.016 8.016 0 0 0-4.281 4.484l-7.979 20.907c-.186-.004-.359-.055-.545-.055h-8v-68.688l37.656-37.656-11.312-11.313-40 40a7.995 7.995 0 0 0-2.344 5.656v72h-16v-72a7.995 7.995 0 0 0-2.344-5.656l-40-40-11.312 11.312L216 187.313V256h-8c-.186 0-.359.051-.544.055l-7.979-20.907a8.013 8.013 0 0 0-4.281-4.484c-56.691-24.745-82.588-90.762-57.843-147.452C162.098 26.521 228.115.624 284.805 25.369c56.691 24.745 82.588 90.762 57.843 147.452a112 112 0 0 1-57.843 57.843zM412.469 352H328a8.018 8.018 0 0 0-5.383 2.078l-82.844 75.32-90.648-75.547A8.01 8.01 0 0 0 144 352H66.445C8.633 352 0 383.609 0 402.445V472a7.995 7.995 0 0 0 7.991 8H472a7.995 7.995 0 0 0 8-7.991v-68.478c0-19.242-8.773-51.531-67.531-51.531zM464 464H16v-61.555C16 393.93 16 368 66.445 368h74.656l93.773 78.148a8.023 8.023 0 0 0 10.508-.227L331.094 368h81.375C464 368 464 394.742 464 403.531V464z"/>
    <path fill="#19b4c7" d="M232 352h16v40h-16zM264 352h16v24h-16zM200 352h16v24h-16zM68.421 15.162L75.576.852l47.997 23.998-7.155 14.31zM354.535 20.923l50.906-16.985 5.061 15.17-50.905 16.985zM32 104h56v16H32zM392 104h56v16h-56zM60.415 232.81l47.997-24 7.155 14.311L67.57 247.12zM364.441 223.212l7.155-14.31 47.997 23.998-7.155 14.31zM216 120h48v16h-48z"/>
</svg>
