<svg width="511.991" height="511.991" xmlns="http://www.w3.org/2000/svg">

 <g>
  <title>background</title>
  <rect fill="none" id="canvas_background" height="402" width="582" y="-1" x="-1"/>
 </g>
 <g>
  <title>Layer 1</title>
  <path fill="#28cdd1" id="svg_1" d="m511.991,196.243c0,-0.179 -0.094,-0.333 -0.102,-0.503a8.146,8.146 0 0 0 -0.35,-1.741a8.824,8.824 0 0 0 -0.486,-1.476a8.236,8.236 0 0 0 -0.853,-1.28a8.38,8.38 0 0 0 -1.161,-1.348c-0.137,-0.12 -0.196,-0.282 -0.341,-0.393l-82.039,-63.735l0,-66.057c0,-14.138 -11.462,-25.6 -25.6,-25.6l-92.476,0l-37.027,-28.749a25.319,25.319 0 0 0 -31.121,0l-37.034,28.749l-92.476,0c-14.138,0 -25.6,11.461 -25.6,25.6l0,66.057l-82.031,63.735c-0.145,0.111 -0.205,0.273 -0.341,0.393a8.38,8.38 0 0 0 -1.161,1.348c-0.324,0.399 -0.61,0.828 -0.853,1.28c-0.207,0.476 -0.37,0.97 -0.486,1.476a8.087,8.087 0 0 0 -0.35,1.707c0,0.171 -0.102,0.324 -0.102,0.503l0,290.167a25.294,25.294 0 0 0 1.425,8.064a8.456,8.456 0 0 0 9.387,12.8a25.415,25.415 0 0 0 14.78,4.736l460.8,0a25.427,25.427 0 0 0 14.822,-4.804a8.378,8.378 0 0 0 2.244,0.367a8.456,8.456 0 0 0 7.117,-13.098a25.318,25.318 0 0 0 1.417,-8.064l0,-290.134l-0.002,0zm-261.12,-177.416a8.182,8.182 0 0 1 10.18,0l19.686,15.283l-49.493,0l19.627,-15.283zm-223.163,476.083l223.164,-173.346a8.209,8.209 0 0 1 10.172,0l223.231,173.346l-456.567,0zm467.217,-13.329l-223.386,-173.491a25.309,25.309 0 0 0 -31.095,0l-223.386,173.491l0,-272.342l139.836,108.587a8.536,8.536 0 0 0 11.977,-1.515a8.536,8.536 0 0 0 -1.515,-11.977l-142.063,-110.318l60.032,-46.643l0,65.937a8.533,8.533 0 0 0 17.066,0l0,-153.6a8.533,8.533 0 0 1 8.533,-8.533l290.133,0a8.533,8.533 0 0 1 8.533,8.533l0,153.6a8.533,8.533 0 0 0 17.066,0l0,-65.937l60.032,46.643l-142.317,110.515a8.536,8.536 0 0 0 10.471,13.483l140.083,-108.774l0,272.341z"/>
  <path fill="#28cdd1" id="svg_2" d="m170.658,110.91l170.667,0c4.713,0 8.533,-3.82 8.533,-8.533s-3.82,-8.533 -8.533,-8.533l-170.667,0c-4.713,0 -8.533,3.82 -8.533,8.533s3.82,8.533 8.533,8.533zm179.2,42.667a8.533,8.533 0 0 0 -8.533,-8.533l-170.667,0a8.533,8.533 0 0 0 0,17.066l170.667,0a8.533,8.533 0 0 0 8.533,-8.533zm0,51.2a8.533,8.533 0 0 0 -8.533,-8.533l-76.8,0c-4.713,0 -8.533,3.82 -8.533,8.533s3.82,8.533 8.533,8.533l76.8,0a8.533,8.533 0 0 0 8.533,-8.533z"/>
 </g>
</svg>